<?xml version="1.0" encoding="UTF-8"?>
<!DOCTYPE svg PUBLIC "-//W3C//DTD SVG 1.1//EN" "http://www.w3.org/Graphics/SVG/1.1/DTD/svg11.dtd">
<svg version="1.1" xmlns="http://www.w3.org/2000/svg" xmlns:xlink="http://www.w3.org/1999/xlink" x="0" y="0" width="1024" height="1024" viewBox="0, 0, 1024, 1024">
  <g id="Background">
    <rect x="0" y="0" width="1024" height="1024" fill="url(#Gradient_1)"/>
  </g>
  <defs>
    <linearGradient id="Gradient_1" gradientUnits="userSpaceOnUse" x1="149.961" y1="874.039" x2="874.039" y2="149.961">
      <stop offset="0" stop-color="#1FB7F7"/>
      <stop offset="1" stop-color="#081388"/>
    </linearGradient>
  </defs>
  <g id="Circle">
    <path d="M512.5,776.829 C366.515,776.829 248.171,658.485 248.171,512.5 C248.171,366.515 366.515,248.171 512.5,248.171 C658.485,248.171 776.829,366.515 776.829,512.5 C776.829,658.485 658.485,776.829 512.5,776.829 z" fill-opacity="0" stroke="#FFFFFF" stroke-width="26" id="Circle2"/>
    <path d="M512.5,739.068 C387.37,739.068 285.932,637.63 285.932,512.5 C285.932,387.37 387.37,285.932 512.5,285.932 C637.63,285.932 739.068,387.37 739.068,512.5 C739.068,637.63 637.63,739.068 512.5,739.068 z" fill-opacity="0" stroke="#FFFFFF" stroke-width="26" id="Circle1"/>
  </g>
  <g id="Grid">
    <path d="M520.971,273.132 C521.495,273.384 522.092,273.521 522.544,273.887 C524.797,275.712 525.668,279.04 526.343,281.715 C527.454,286.116 528.045,290.653 528.538,295.158 C529.615,305.003 530.103,314.914 530.481,324.807 C531.325,346.923 531.432,369.064 531.453,391.193 C531.329,422.561 531.35,453.976 529.035,485.276 C554.447,467.527 581.427,452.191 608.238,436.692 C728.829,367.069 713.566,385.447 718.676,394.297 C723.786,403.147 747.333,399.118 626.742,468.742 C600.375,483.676 574.22,499.126 546.909,512.311 C556.485,516.713 565.688,521.864 574.952,526.874 C592.377,536.28 609.585,546.081 626.742,555.965 C747.333,625.588 723.786,621.559 718.676,630.41 C713.566,639.26 728.829,657.638 608.238,588.015 C581.414,572.343 554.412,556.87 528.71,539.384 C529.789,555.636 529.319,547.237 530.083,564.583 C530.903,587.15 531.034,609.739 531.055,632.319 C531.055,771.566 522.771,749.159 512.551,749.159 C502.332,749.159 494.047,771.566 494.047,632.319 C494.178,601.013 494.141,569.657 496.451,538.417 C486.605,545.051 491.454,541.857 481.911,548.014 C460.733,561.551 439.014,574.235 417.262,586.821 C296.671,656.444 311.934,638.066 306.824,629.216 C301.714,620.366 278.167,624.395 398.758,554.771 C425.151,539.818 451.337,524.359 478.677,511.16 C451.44,497.756 425.052,482.696 398.758,467.548 C278.167,397.925 301.714,401.954 306.824,393.103 C309.108,388.552 307.555,384.362 314.143,384.138 C331.57,387.188 350.898,398.597 366.329,406.902 C383.474,416.131 400.391,425.779 417.262,435.498 C443.286,452.314 471.724,465.447 496.755,483.822 C494.618,453.001 494.474,422.076 494.445,391.193 C494.445,251.947 502.729,274.354 512.949,274.354 C520.24,273.515 506.072,275.233 518.451,273.204 C519.281,273.068 520.131,273.156 520.971,273.132 z" fill="#FFFFFF" id="Grid1"/>
  </g>
  <g id="Handle">
    <path d="M530.022,167.764 C518.218,203.332 530.022,239.107 530.022,239.107 L493.715,239.107 C493.715,239.107 504.852,202.856 493.715,167.764 C479.279,122.281 545.117,122.281 530.022,167.764 z" fill="#FFFFFF" id="Handle6"/>
    <path d="M221.961,324.096 C246.861,352.103 283.746,359.768 283.746,359.768 L265.592,391.211 C265.592,391.211 239.766,363.44 203.807,355.539 C157.2,345.3 190.119,288.282 221.961,324.096 z" fill="#FFFFFF" id="Handle5"/>
    <path d="M203.921,668.689 C240.625,661.128 265.706,633.017 265.706,633.017 L283.859,664.46 C283.859,664.46 246.896,672.941 222.074,700.132 C189.903,735.375 156.984,678.357 203.921,668.689 z" fill="#FFFFFF" id="Handle4"/>
    <path d="M819.707,356.386 C783.002,363.947 757.922,392.058 757.922,392.058 L739.768,360.615 C739.768,360.615 776.731,352.134 801.553,324.943 C833.724,289.7 866.643,346.718 819.707,356.386 z" fill="#FFFFFF" id="Handle3"/>
    <path d="M493.701,857.272 C505.505,821.704 493.701,785.929 493.701,785.929 L530.008,785.929 C530.008,785.929 518.871,822.181 530.008,857.272 C544.444,902.755 478.606,902.755 493.701,857.272 z" fill="#FFFFFF" id="Handle2"/>
    <path d="M801.666,699.979 C776.766,671.972 739.881,664.307 739.881,664.307 L758.035,632.864 C758.035,632.864 783.861,660.635 819.82,668.536 C866.427,678.775 833.508,735.793 801.666,699.979 z" fill="#FFFFFF" id="Handle1"/>
  </g>
</svg>
