<?xml version="1.0" encoding="UTF-8"?>
<!DOCTYPE svg PUBLIC "-//W3C//DTD SVG 1.1//EN" "http://www.w3.org/Graphics/SVG/1.1/DTD/svg11.dtd">
<svg version="1.1" xmlns="http://www.w3.org/2000/svg" xmlns:xlink="http://www.w3.org/1999/xlink" x="0" y="0" width="800" height="800" viewBox="0, 0, 800, 800">
  <g id="Circle">
    <path d="M400.5,664.829 C254.515,664.829 136.171,546.485 136.171,400.5 C136.171,254.515 254.515,136.171 400.5,136.171 C546.485,136.171 664.829,254.515 664.829,400.5 C664.829,546.485 546.485,664.829 400.5,664.829 z" fill-opacity="0" stroke="#FFFFFF" stroke-width="26" id="Circle2"/>
    <path d="M400.5,627.068 C275.37,627.068 173.932,525.63 173.932,400.5 C173.932,275.37 275.37,173.932 400.5,173.932 C525.63,173.932 627.068,275.37 627.068,400.5 C627.068,525.63 525.63,627.068 400.5,627.068 z" fill-opacity="0" stroke="#FFFFFF" stroke-width="26" id="Circle1"/>
  </g>
  <g id="Grid">
    <path d="M408.971,161.132 C409.495,161.384 410.092,161.521 410.544,161.887 C412.797,163.712 413.668,167.04 414.343,169.715 C415.454,174.116 416.045,178.653 416.538,183.158 C417.615,193.003 418.103,202.914 418.481,212.807 C419.325,234.923 419.432,257.064 419.453,279.193 C419.329,310.561 419.35,341.976 417.035,373.276 C442.447,355.527 469.427,340.191 496.238,324.692 C616.829,255.069 601.566,273.447 606.676,282.297 C611.786,291.147 635.333,287.118 514.742,356.742 C488.375,371.676 462.22,387.126 434.909,400.311 C444.485,404.713 453.687,409.864 462.952,414.874 C480.377,424.28 497.585,434.081 514.742,443.965 C635.333,513.588 611.786,509.559 606.676,518.41 C601.566,527.26 616.829,545.638 496.238,476.015 C469.414,460.343 442.412,444.87 416.71,427.384 C417.789,443.636 417.319,435.237 418.083,452.583 C418.903,475.15 419.034,497.739 419.055,520.319 C419.055,659.566 410.771,637.159 400.551,637.159 C390.332,637.159 382.047,659.566 382.047,520.319 C382.178,489.013 382.141,457.657 384.451,426.417 C374.605,433.051 379.454,429.857 369.911,436.014 C348.733,449.551 327.014,462.235 305.262,474.821 C184.671,544.444 199.934,526.066 194.824,517.216 C189.714,508.366 166.167,512.395 286.758,442.771 C313.152,427.818 339.337,412.359 366.677,399.16 C339.44,385.756 313.052,370.696 286.758,355.548 C166.167,285.925 189.714,289.954 194.824,281.103 C197.108,276.552 195.555,272.362 202.143,272.138 C219.57,275.188 238.898,286.597 254.329,294.902 C271.474,304.131 288.391,313.779 305.262,323.498 C331.286,340.314 359.724,353.447 384.755,371.822 C382.618,341.001 382.474,310.076 382.445,279.193 C382.445,139.947 390.729,162.354 400.949,162.354 C408.24,161.515 394.072,163.233 406.451,161.204 C407.281,161.068 408.131,161.156 408.971,161.132 z" fill="#FFFFFF" id="Grid1"/>
  </g>
  <g id="Handle">
    <path d="M418.022,55.764 C406.218,91.332 418.022,127.107 418.022,127.107 L381.715,127.107 C381.715,127.107 392.852,90.856 381.715,55.764 C367.279,10.281 433.117,10.281 418.022,55.764 z" fill="#FFFFFF" id="Handle6"/>
    <path d="M109.961,212.096 C134.861,240.103 171.746,247.768 171.746,247.768 L153.592,279.211 C153.592,279.211 127.766,251.44 91.807,243.539 C45.2,233.3 78.119,176.282 109.961,212.096 z" fill="#FFFFFF" id="Handle5"/>
    <path d="M91.921,556.689 C128.625,549.128 153.706,521.017 153.706,521.017 L171.859,552.46 C171.859,552.46 134.896,560.941 110.074,588.132 C77.903,623.375 44.984,566.357 91.921,556.689 z" fill="#FFFFFF" id="Handle4"/>
    <path d="M707.707,244.386 C671.002,251.947 645.922,280.058 645.922,280.058 L627.768,248.615 C627.768,248.615 664.731,240.134 689.553,212.943 C721.724,177.7 754.643,234.718 707.707,244.386 z" fill="#FFFFFF" id="Handle3"/>
    <path d="M381.701,745.272 C393.505,709.704 381.701,673.929 381.701,673.929 L418.008,673.929 C418.008,673.929 406.871,710.181 418.008,745.272 C432.444,790.755 366.606,790.755 381.701,745.272 z" fill="#FFFFFF" id="Handle2"/>
    <path d="M689.666,587.979 C664.766,559.972 627.881,552.307 627.881,552.307 L646.035,520.864 C646.035,520.864 671.861,548.635 707.82,556.536 C754.427,566.775 721.508,623.793 689.666,587.979 z" fill="#FFFFFF" id="Handle1"/>
  </g>
</svg>
